<?xml version="1.0" encoding="UTF-8"?>
<svg id="Lag_1" data-name="Lag 1" xmlns="http://www.w3.org/2000/svg" viewBox="0 0 1024 1024">
  <defs>
    <style>
      .cls-1 {
        fill: #a9022e;
      }

      .cls-2 {
        fill: #fdfdfd;
      }
    </style>
  </defs>
  <path class="cls-2" d="M459,0c-12.48,3.94-27.56,3.71-40.28,6.05C137.15,57.73-49.1,343.07,16.29,627.21c49.48,215.03,241.94,386.07,465.27,394.78,1.91.07,4.01-1.03,3.45,2H0V0h459Z"/>
  <path class="cls-1" d="M573,0l77.28,14.05c174.87,47.37,316.53,189.01,363.47,364.7l10.25,45.25v172l-20.51,79.99c-60.47,178.16-225.75,319.82-414.06,343.94-13.43,1.72-29.88.42-42.43,4.07h-62c.56-3.03-1.54-1.93-3.45-2-223.33-8.71-415.79-179.75-465.27-394.78C-49.1,343.07,137.15,57.73,418.72,6.05c12.71-2.33,27.8-2.11,40.28-6.05h114ZM575.69,24.35C185.24-16.96-98.36,379.37,80.63,734.87c163.78,325.29,625.56,357.57,835.34,60.37,213.67-302.71,24.06-732.35-340.28-770.89Z"/>
  <path class="cls-2" d="M1024,596v428h-477c12.55-3.65,29-2.35,42.43-4.07,188.31-24.12,353.58-165.78,414.06-343.94l20.51-79.99Z"/>
  <path class="cls-2" d="M573,0h451v424l-10.25-45.25C966.81,203.06,825.15,61.42,650.28,14.05L573,0Z"/>
  <path class="cls-2" d="M575.69,24.35c364.34,38.54,553.95,468.18,340.28,770.89-209.78,297.2-671.55,264.92-835.34-60.37C-98.36,379.37,185.24-16.96,575.69,24.35ZM547.68,44.35c-14.6-2.69-35.34-3.79-50.21-2.38-7.21.68-23.14,8.18-27.96,7.97-2.41-.1-7.02-3.88-7.96-4.01-23.56-3.31-5.15,19.45-3.82,28.82.84,5.91-3.46,20.63,6.98,21,11.08.4,9.09-12.7,12.1-20.45,2.45-6.31,16.61-22.2,21.54-12.11,1.74,3.56,3.98,73.38,2.54,79.22-1.99,8.04-20.46,3.78-17.68,16.81s15.08,3.35,22.24,2.71c4.75-.42,13.34-.42,18.1-.01,5.13.44,24.81,8.81,26.38-.7,2.8-17.05-16.55-11.49-17.99-18.73-4.12-20.78,4.02-54.66,2.54-76.55,2.62-12.36,18.5.48,21.39,6.88,3.15,6.96,1.36,20.37,9.88,22.89,13.07,3.86,9.32-16.79,10.46-23,.98-5.3,15.01-23.59,4.01-26.66-8.3-2.32-11.59,4.09-16.73,4.01-4.44-.06-12.44-5.1-15.83-5.73ZM400.71,58.34c-11.61-3.87-11.26,5.07-16.09,7.26-9.78,4.44-27.76,4.42-38.88,8.46-11.72,4.26-32.82,24.51-39.54,25.63s-20.41-5.98-22.17,3.04c-2.94,15.06,15.33,14.46,25.02,16.72l33.26,59.77c3.79,7.73-4.53,8.2-7.95,13.15-3.07,4.44-10.76,19.02-1.61,21.57,12.29,3.42,14.14-12.36,24-15.87,4.54-1.62,18.24-.84,23.52-2.11,3.12-.75,11.07-4.24,14.3-5.82,2.86-1.4,11.89-9.79,13.2-10.06,6.37-1.34,21.2,4.57,23.52-3.33,3.54-12.03-7.4-13.49-9.23-21.51s3.28-27.79-12.33-23.19c-10.22,3.01-.65,29.24-15.53,37.9-7.09,4.12-14.4,6.5-21.96,2.37-4.05-2.21-14.65-25.28-10.09-28.16,9.06-5.72,9.41,12.26,21.09,9.77s-1.67-21.98-3.15-26.72c-1.8-5.76,1.28-19.83-6.87-21.13-17.64-2.82-7.04,30.86-21.53,23.95-1.23-.59-11.65-23.01-11.67-24.64-.21-14.13,25.16-19.15,35.59-17.46,14.14,2.29,14.5,23.28,28.84,20.11,13.02-2.88-1.68-21.1-2.18-29.34-.19-3.05,4.93-18.19-1.57-20.35ZM645.57,64.42c-5.63-2.6-14.2-6.18-16.1,3.55-2.18,11.11,12.64,9.75,12.61,19.51-.01,4.97-17.04,60.94-19.9,67.19-4.47,9.77-9.18,3.69-18.85,5.69-.34.07-5.16,4.05-5.26,4.4-4.7,18.02,19.68,12.12,31.21,15.27,9.05,2.47,25.75,20.33,32.73,11.19,10.14-13.28-16.13-14.95-11.52-27.17l25.52-68.03c6.38.51,19.74-.01,19.04-9.51-.94-12.79-17.5-8.08-28.48-10.6-8-1.83-14.74-8.61-21.02-11.5ZM766.43,113.56c-8.68-7.9-17.01-2.12-14.17,8.69.83,3.14,7.68,8.87,7.31,11.77-6.79,7.93-43.55,61.44-49.05,62.06-6.76.76-26.3-13.46-22.57,8.44.51,2.98,26.48,14.29,31.81,19.69.46.47,5.28,9.97,6.65,11.42,5.94,6.33,16.74,9.5,17.68-2.14.45-5.52-7.57-11.86-7.87-16.14-.26-3.68,31.34-39.92,36.16-44.98,13.02-13.65,17.68-21.52,35.81-6.3,13.97,11.72,14.63,25.95,5.75,41.14-13.33,22.81-72.97,4.37-65.86,51.21,3.1,20.41,41.99,29.3,42.04,10.01.03-10.81-16.33-5.78-14.94-17.66,1.6-13.67,40.23-6.51,54.47-15.13,27.36-16.57,16.6-58.76-2.99-77.36-12.66-12.02-34.6-16.35-46.57-27.04-5.78-5.16-9.16-13.6-13.65-17.69ZM238.63,140.38c-12.06-9.67-17.38,11.71-25.71,18.88-5.14,4.42-25.74,12.5-26.49,16.65-3.39,18.88,22.7,3.85,25.14,13.99,1.17,4.87-1.42,42.49-3.66,44.02-2.61,1.78-25.02-16.76-25.53-18.27-2.86-8.5,10.51-27.73-8.9-25.7-3.33.35-13.63,23.71-17.47,28.56-7.32,9.25-23.33,12.52-18.99,24.76s18.65-4.3,25.19-3.18c7.63,1.3,49.87,40.15,61.53,44.13,4.22,5.1-8.98,28.24,3.73,29.84,11.1,1.4,12.94-16.83,18.56-25.29,4.46-6.73,23.75-17.93,23.94-24.36.06-2.15-2.87-7.84-4.73-8.35-14.74-4.01-15.27,17.65-33.16,1.19-12.91-11.88-3.99-32.18,12.31-31.19,10.03.61,14.29,13.43,18.92,17.64,12.73,11.55,40.4,8.79,44.46-10.43,2.08-9.87,1.29-33.63-14.53-27.02-5.63,2.35.41,23.13-17.88,15.4-16.65-7.04-10.04-17.37-39.91-13.72-1.45.18-4.66,4.3-6.96,3.1,2.39-13.77.32-33.3,3.58-46.27,1.91-7.58,16.21-16.64,6.57-24.37ZM534.69,180.35c-316.77-14.98-470.9,382.41-220.61,582.9,153.89,123.27,384.22,79.34,483.27-89.4,124.77-212.56-21.34-482.09-262.66-493.5ZM905.55,264.46c-3.66-1.32-11.5-4.11-15-4.5-4.7-.53-44.31-.84-46.37.23-.44.23-3.06,7.53-4.24,9.03-22,27.85-35.42,45.21-20.22,83.53,5.16,13,25.28,25.42,28.22,32.05,2.4,5.41,1.78,19.99,7.51,21.39,14.69,3.58,13.24-15.92,21.31-18.12,13.55-3.69,22.2,5.2,29.77,3.99.99-.16,5.53-4.63,5.57-5.57.52-13.17-17.79-11-22.1-14.49-1.41-1.15,15.78-33.28-7.71-25.65-2.94.95-4.35,23.94-17.89,23.65-11.27-.23-25.79-21.17-27.85-32.02-9.75-51.26,94.47-75.6,90.53-5.49-.92,16.39-21.02,18.74-16.33,30.27,5.32,13.08,18.39-1.93,23.71-2.82,8.02-1.34,30.73,4.74,24.97-11.88-1.16-3.34-9.78-7.55-10.91-10.05-10.8-23.87-10.34-61.74-42.96-73.55ZM188.58,312.44c-10.17-5.07-16.99-1.35-14,10.54.8,3.19,11.98,10.75,13.95,18.99,3.21,13.39-3.51,33.03-20.45,29.45-3.44-.73-59.24-31.27-61.56-33.9-5.61-6.36,1.84-23.02-11.01-23.61-9.96-.45-9.42,21.67-12.05,30.04-3.13,10-19.15,27.43-14.34,35.43,7.44,12.39,19.09-9.81,23.32-9.49,7.94,4.11,68.41,30.61,69.28,34.38,1.63,7.03-3,34.64,15.45,27.6,7.08-2.7,0-17.05,1.45-23.81,1.21-5.71,12.54-15.85,15.67-21.35,7.26-12.75,8.76-24.91,14.09-36.36,2.95-6.32,12.42-8.01,13.69-15.88,1.59-9.82-13.09-8.32-20.14-10.67-4.9-1.64-10.47-9.94-13.34-11.37ZM977.81,416.19c-13.46-7.11-17.66,13.26-23.58,19.74l-67.81,12.14c-9.48.14-11.13-25.73-25.87-22-15.47,3.91,2.54,18.23,3.46,24.41,1.61,10.84-3.19,15.55-4.06,24.97-1.22,13.35,4.22,25.98,3.69,35.89-.34,6.32-5.79,11.01-6.16,16.14-1.08,14.7,22.33,5.2,32.07,6.44,2.61.33,16.18,9.09,18.78-1.21,4.11-16.28-22.32-13.48-27.62-25.98-5.06-11.94-3.9-26.49,10.75-28.78,2.56-.4,18.97-.78,20.64.68,8.53,7.44-11.05,9.41-12.67,15.25-4.86,17.58,17.64,9.98,28.14,10.03,4.55.02,17.85,6.72,19.66-2.18,3.61-17.74-23.37-8.76-17.02-25.04,1.6-4.11,21.82-5.26,25.31-4.74,17.35,2.59,14.37,35.17,2.84,43.9-8.11,6.14-27.56,5.74-23.8,19.12,2.39,8.49,20.28,4.03,27.84,5.1,5.52.78,15.44,11.53,21.26,3.59,5.43-7.41-2.57-12.72-3.24-15.57-2.35-10,5.14-34.34,3.55-49.59-1.47-14.07-12.32-28.28-9.75-41.78.69-3.62,10.73-16.77,3.58-20.54ZM113.69,426.33c-31.46,13.08-66.57,26.66-67.72,67.14-.96,34.11,19.88,47.54,45.6,60.94,2.57,1.34,12.24,9.42,13.9,9.64,7.49,1,10.69-5.08,16.85-7.72,35.9-15.38,59.9-34.27,47.37-79.51-8.42-30.4-34.33-34.1-56-50.49ZM939.7,576.35c-6.69-.94-12.69,2.29-11.72,10.08.73,5.85,19.3,11.84,22.69,19.38,1.83,4.09,4.99,16,.2,18.04-3.66,1.56-68.11-18.97-76.81-20.44-8.91-4.11,1.61-25.4-13.57-23.45-11.81,1.52-5.6,12.15-6.54,17.41-.65,3.65-2.87,11.26-4.01,15.06-2.65,8.86-16.47,24.55-9.61,31.23,12.23,11.91,16.09-17.56,27.95-11.62l71.73,25.96c1.42,9.81-10.03,17.26-18.46,18.04-7.29.68-22.55-5.95-23.5,5.55-1.06,12.79,11.79,9.76,18.62,12.78,4.19,1.85,14.05,15.48,16.84,15.73,13.35,1.23,7.64-14.06,10.58-23.31,1.32-4.13,11.4-13.38,13.77-19.66,2.49-6.58,11.03-33.74,11.88-39.9,1.07-7.82-.87-17.08.5-24.5,1.02-5.56,8.74-10.57,8.82-15.27.25-15.58-20.48-6.07-31.61-7.39-.43-.05-7.32-3.66-7.74-3.72ZM101.72,586.3c-6.66-2.5-16.81,5.71-24.21,5.77-5.58.05-13.79-4.65-19.02-2.1-13.01,6.36,3.09,16.18,5.24,22.79,4.58,14.03,2.59,29.59,9.06,45.94,4.38,11.07,19.3,24.5,19.29,35.78-.01,8.26-7.77,24.81,10.37,19.53,6.38-1.86,5.49-17.59,7.77-21.86,1.87-3.51,67.81-34.32,71.72-33.65,4.51.77,8.51,15.62,18.04,12.92,15.55-4.4-4.98-24.62-7.83-32.29-2.54-6.82-6.18-34.7-11.65-35.21-14.82-1.39-8.88,12.83-10.57,20.51-1.25,5.72-24.48,15.95-29.94,13.07-9.93-5.24,9.05-12.12,9.79-17.29,3.03-21.1-22.24-2.68-28.35-2.29-6.97.45-17.04-5.58-19.16,3.82-4.56,20.26,23.69,5.52,21.68,23.48-.18,1.62-19.4,10.39-21.69,10.73-16.77,2.51-21.37-22.61-18.91-35.3,2.66-13.69,25.92-16.83,22.44-29.96-.08-.29-3.81-4.28-4.09-4.39ZM398,868c11.21-26.74-19.78-38.54-41.55-36.05-31.44,3.61-48.66,53.25-76.99,52.1-6.67-.27-18.83-8.09-22.13-13.86-21.74-38.07,28.82-62.66,42.6-43.4,4.19,5.85,1.83,13.22,12.64,13.34,15.27.17,3.9-26.13-6.93-31.8-33.13-17.33-61.11,18.36-85.18,13.74-18.38-3.53,17.97-23.5,20.55-26.84,8.03-10.42,6.24-21.36-2.32-30.9-2.49-2.77-15.26-10.2-15.75-11.03-1.34-2.28-.46-5.8-1.72-8.02-11.55-20.34-27.91-35.56-53.41-30.96-16.53,2.98-14.75,22.95-.59,19.39,9.43-2.37,11.11-13.15,25.73-2.93,23.62,16.52-18.73,36.35-23.18,50.5-2.4,7.63-1.11,14.58,2.98,21.41,2.84,4.74,14.69,8.64,15.04,9.46,1.25,3.01.05,6.98,2.94,12.57,5.08,9.8,18.36,15.05,28.83,15.34,2.94.08,10.86-3.62,12.45-2.06.63.62-2.17,14.24-2.05,17.54,1.36,38.31,39.63,63.82,74.04,44.47-12.85,31.14,24.55,44.94,49.55,42.04,45.32-5.27,56.49-85.85,110.12-61.68,4.93,2.22,23.54,22.02,19.34,25.63-.72.62-14.49-1.65-16.57,5.91-4.88,17.78,14.42,15.45,14.55,17.57.87,14.67-42.08,35.88-51.86,19.7-2.88-4.76-2.65-17.71-9.89-19.09-18.13-3.45-16.88,17.3-11.19,29.15,14.67,30.55,70.01,14.27,85.55-9.6,2.77-4.25,8.53-20.85,9.46-21.56,1.05-.8,25.16-.67,26.36-.13.88.4,4.9,14.18,7.17,18.01,14.96,25.24,50.69,37.22,76.98,24.2,17.63-8.73,23.36-45.82-.81-40.08-7.03,1.67-5.25,22.47-15.23,24-11.96,1.84-28.98-2.62-37.56-11.55-1.78-1.85-8.62-12.96-7.93-14.92.91-2.57,18.04,2.61,15.77-12.84-2.66-18.1-28.36,2.88-11.77-21.98,5.26-7.89,18.01-15.96,27.33-16.86,48.9-4.73,52.81,74.23,116.05,66.01,16.39-2.13,41.19-21.53,30.57-39.93-.1-.18-3.01.8-1.99-1.99,2.75-1.03,1.86,1.95,1.99,1.99,44.01,12.78,73.67-8.31,73.03-54.53-.03-2.21-2.39-9.14-2.03-9.46.73-.64,13.26,2.16,16.54,2.04,7.36-.27,22.39-8.56,25.77-15.35,2.68-5.39,1.76-9.97,2.9-12.56.21-.48,8.22-3.57,9.38-4.58,9.41-8.15,11.27-17.68,7.01-29.69-5.13-14.46-42.15-26.31-24.28-45.56,14.18-15.28,34.68,11.56,39.18-2.29,5.39-16.62-21.27-17.58-31.04-16.09-6.36.97-28.63,18.32-31.45,24.79-1.88,4.32-2.46,13.55-3.22,15.07-.45.91-10.59,5.08-12.34,6.59-12.61,10.85-15.64,24.4-4.01,37.27,3.55,3.93,29.7,15.92,20.34,22.74-11.36,8.27-33.71-9.18-44.55-12.28-14.13-4.05-29.33-6.51-42.88.27-9.23,4.62-22.52,28.37-8.58,31.35,13.08,2.8,9.73-15.27,21-17.64,51.04-10.74,51.41,59.88,13.78,61.98-35.62,1.99-43.37-58.67-93.96-51.97-13.37,1.77-41.71,23.11-24.21,35.55,17.36,12.35,13.79-20.33,36.85-15.35,6.14,1.32,41.56,38.22,50.78,45.72,1.2.15,4.86-.31,2.99,1.99s-2.85-1.88-2.99-1.99c-17.45-2.12-15.91,20.1-26.78,21.92-21.77,3.65-28.17-15.55-39.61-27.55-13.6-14.27-39.86-42.63-59.06-44.45-33.76-3.19-57.28,15.74-68.22,45.91-.81,2.23-1.84,12.72-2.34,13.16-.9.78-23.21-.12-23.87-1.11-.4-.61-1.03-11.64-2.04-14.38-12.51-33.79-45.54-52.41-80.73-39.13-7.95,3-16.44,13.22-23.35,15.63-2.31,5.52-45.02,51.07-50.73,51.95-28.42,4.38-14.72-22.71-37.26-21.96l38.07-37.25c3.47-1.15,8.55-7.78,11.68-8.46,25.13-5.45,14.07,24.17,38.24,15.72Z"/>
  <path class="cls-1" d="M730,902c10.62,18.4-14.18,37.8-30.57,39.93-63.24,8.21-67.15-70.75-116.05-66.01-9.32.9-22.07,8.98-27.33,16.86-16.59,24.86,9.11,3.88,11.77,21.98,2.27,15.45-14.87,10.27-15.77,12.84-.69,1.96,6.16,13.07,7.93,14.92,8.58,8.93,25.59,13.38,37.56,11.55,9.97-1.53,8.2-22.33,15.23-24,24.18-5.75,18.44,31.34.81,40.08-26.29,13.02-62.03,1.05-76.98-24.2-2.27-3.82-6.29-17.61-7.17-18.01-1.2-.55-25.31-.67-26.36.13-.94.71-6.69,17.31-9.46,21.56-15.55,23.88-70.88,40.15-85.55,9.6-5.69-11.85-6.94-32.6,11.19-29.15,7.24,1.38,7.01,14.33,9.89,19.09,9.78,16.19,52.73-5.03,51.86-19.7-.13-2.12-19.43.21-14.55-17.57,2.08-7.57,15.85-5.3,16.57-5.91,4.21-3.61-14.41-23.4-19.34-25.63-53.62-24.16-64.79,56.41-110.12,61.68-25,2.91-62.4-10.9-49.55-42.04-34.42,19.36-72.68-6.16-74.04-44.47-.12-3.3,2.69-16.93,2.05-17.54-1.6-1.56-9.51,2.14-12.45,2.06-10.47-.29-23.75-5.54-28.83-15.34-2.89-5.59-1.69-9.56-2.94-12.57-.34-.82-12.2-4.72-15.04-9.46-4.09-6.83-5.37-13.78-2.98-21.41,4.44-14.15,46.8-33.99,23.18-50.5-14.62-10.22-16.29.56-25.73,2.93-14.15,3.56-15.93-16.41.59-19.39,25.5-4.6,41.86,10.62,53.41,30.96,1.26,2.22.38,5.74,1.72,8.02.49.83,13.26,8.26,15.75,11.03,8.57,9.54,10.35,20.48,2.32,30.9-2.58,3.34-38.93,23.32-20.55,26.84,24.07,4.62,52.05-31.07,85.18-13.74,10.84,5.67,22.2,31.97,6.93,31.8-10.8-.12-8.45-7.49-12.64-13.34-13.78-19.26-64.34,5.33-42.6,43.4,3.3,5.77,15.46,13.59,22.13,13.86,28.33,1.16,45.55-48.49,76.99-52.1,21.76-2.5,52.75,9.3,41.55,36.05-24.18,8.45-13.11-21.18-38.24-15.72-3.13.68-8.21,7.32-11.68,8.46l-38.07,37.25c22.55-.75,8.84,26.33,37.26,21.96,5.71-.88,48.42-46.43,50.73-51.95,6.91-2.41,15.4-12.63,23.35-15.63,35.19-13.28,68.22,5.34,80.73,39.13,1.01,2.73,1.64,13.77,2.04,14.38.66,1,22.97,1.9,23.87,1.11.5-.44,1.53-10.92,2.34-13.16,10.94-30.17,34.46-49.1,68.22-45.91,19.2,1.81,45.46,30.18,59.06,44.45,11.44,12,17.83,31.2,39.61,27.55,10.87-1.82,9.33-24.04,26.78-21.92.14.11,1.04,4.41,2.99,1.99s-1.79-1.85-2.99-1.99c-9.22-7.5-44.65-44.39-50.78-45.72-23.06-4.98-19.49,27.7-36.85,15.35-17.5-12.45,10.84-33.78,24.21-35.55,50.59-6.7,58.35,53.95,93.96,51.97,37.62-2.1,37.25-72.72-13.78-61.98-11.27,2.37-7.92,20.44-21,17.64-13.95-2.99-.65-26.74,8.58-31.35,13.55-6.78,28.75-4.32,42.88-.27,10.84,3.11,33.19,20.56,44.55,12.28,9.36-6.82-16.79-18.81-20.34-22.74-11.63-12.87-8.59-26.42,4.01-37.27,1.76-1.51,11.89-5.68,12.34-6.59.76-1.52,1.35-10.75,3.22-15.07,2.81-6.48,25.09-23.83,31.45-24.79,9.78-1.49,36.44-.53,31.04,16.09-4.5,13.85-25-12.99-39.18,2.29-17.86,19.25,19.15,31.1,24.28,45.56,4.26,12.01,2.4,21.54-7.01,29.69-1.17,1.01-9.17,4.1-9.38,4.58-1.14,2.59-.21,7.17-2.9,12.56-3.38,6.79-18.41,15.08-25.77,15.35-3.28.12-15.81-2.67-16.54-2.04-.36.32,1.99,7.25,2.03,9.46.65,46.22-29.02,67.31-73.03,54.53-.14-.04.76-3.03-1.99-1.99-1.01,2.79,1.89,1.81,1.99,1.99ZM223.65,768.35c-9.33-9.35-37.13,12.1-35.67,22.94.16,1.17,7.44,8.88,9.41,8.74,7.32-.52,37.38-20.53,26.25-31.68ZM822.67,766.37c-10.89-2.56-17.08,4.92-13.75,15.26,2.48,7.7,41.7,31.04,36.42,3.63-.47-2.44-20.38-18.36-22.68-18.9ZM308.99,898.01c-.11-.11-2.88-.11-2.99,0-2.66,2.65,5.65,2.65,2.99,0Z"/>
  <path class="cls-1" d="M534.69,180.35c241.32,11.41,387.43,280.94,262.66,493.5-99.05,168.74-329.38,212.67-483.27,89.4C63.79,562.76,217.92,165.37,534.69,180.35ZM543.69,200.35c-83.23-6.19-158.25,17.74-221.96,69.34-1.14.92-4.25-.08-4.73.32-.28.23.45,3.19-.21,3.75-11.33,9.52-23.03,20.14-32.61,31.39-214.89,252.34,64.39,621.08,365.93,478.69,279.82-132.13,199.51-560.72-106.41-583.48Z"/>
  <path class="cls-1" d="M766.43,113.56c4.49,4.09,7.88,12.53,13.65,17.69,11.97,10.69,33.91,15.02,46.57,27.04,19.59,18.59,30.35,60.79,2.99,77.36-14.24,8.62-52.87,1.45-54.47,15.13-1.39,11.88,14.97,6.84,14.94,17.66-.05,19.29-38.94,10.4-42.04-10.01-7.11-46.84,52.53-28.4,65.86-51.21,8.88-15.19,8.22-29.42-5.75-41.14-18.13-15.21-22.78-7.35-35.81,6.3-4.82,5.06-36.43,41.3-36.16,44.98.3,4.28,8.32,10.62,7.87,16.14-.95,11.63-11.74,8.47-17.68,2.14-1.36-1.45-6.18-10.95-6.65-11.42-5.32-5.4-31.3-16.71-31.81-19.69-3.74-21.89,15.8-7.67,22.57-8.44,5.5-.62,42.26-54.13,49.05-62.06.37-2.9-6.48-8.63-7.31-11.77-2.84-10.81,5.49-16.58,14.17-8.69Z"/>
  <path class="cls-1" d="M238.63,140.38c9.64,7.73-4.66,16.79-6.57,24.37-3.26,12.97-1.18,32.51-3.58,46.27,2.3,1.2,5.51-2.92,6.96-3.1,29.87-3.65,23.26,6.68,39.91,13.72,18.29,7.74,12.25-13.04,17.88-15.4,15.82-6.61,16.62,17.15,14.53,27.02-4.05,19.22-31.73,21.98-44.46,10.43-4.63-4.2-8.89-17.03-18.92-17.64-16.29-.98-25.22,19.31-12.31,31.19,17.89,16.46,18.42-5.2,33.16-1.19,1.86.51,4.79,6.2,4.73,8.35-.19,6.43-19.47,17.63-23.94,24.36-5.62,8.47-7.46,26.69-18.56,25.29-12.71-1.61.49-24.75-3.73-29.84-11.66-3.98-53.9-42.83-61.53-44.13-6.54-1.12-20.81,15.52-25.19,3.18s11.66-15.51,18.99-24.76c3.84-4.85,14.14-28.21,17.47-28.56,19.41-2.02,6.04,17.21,8.9,25.7.51,1.5,22.92,20.05,25.53,18.27,2.24-1.53,4.83-39.14,3.66-44.02-2.44-10.14-28.54,4.88-25.14-13.99.75-4.15,21.35-12.23,26.49-16.65,8.33-7.17,13.65-28.55,25.71-18.88Z"/>
  <path class="cls-1" d="M977.81,416.19c7.15,3.78-2.89,16.92-3.58,20.54-2.58,13.5,8.28,27.71,9.75,41.78,1.59,15.25-5.91,39.6-3.55,49.59.67,2.84,8.68,8.16,3.24,15.57-5.82,7.94-15.75-2.81-21.26-3.59-7.55-1.06-25.45,3.39-27.84-5.1-3.76-13.38,15.7-12.98,23.8-19.12,11.53-8.73,14.51-41.3-2.84-43.9-3.5-.52-23.71.63-25.31,4.74-6.36,16.28,20.62,7.3,17.02,25.04-1.81,8.9-15.11,2.21-19.66,2.18-10.51-.06-33.01,7.54-28.14-10.03,1.61-5.84,21.2-7.81,12.67-15.25-1.67-1.46-18.08-1.08-20.64-.68-14.65,2.29-15.81,16.84-10.75,28.78,5.29,12.49,31.73,9.69,27.62,25.98-2.6,10.3-16.17,1.54-18.78,1.21-9.74-1.24-33.15,8.25-32.07-6.44.38-5.12,5.83-9.81,6.16-16.14.53-9.91-4.91-22.54-3.69-35.89.86-9.42,5.67-14.14,4.06-24.97-.92-6.19-18.93-20.5-3.46-24.41s16.4,22.14,25.87,22l67.81-12.14c5.92-6.48,10.12-26.85,23.58-19.74Z"/>
  <path class="cls-1" d="M400.71,58.34c6.5,2.16,1.38,17.3,1.57,20.35.51,8.24,15.21,26.46,2.18,29.34-14.35,3.17-14.7-17.83-28.84-20.11-10.44-1.69-35.8,3.33-35.59,17.46.02,1.64,10.44,24.06,11.67,24.64,14.5,6.91,3.89-26.77,21.53-23.95,8.14,1.3,5.07,15.37,6.87,21.13,1.48,4.74,15.22,24.15,3.15,26.72s-12.03-15.49-21.09-9.77c-4.56,2.88,6.05,25.95,10.09,28.16,7.56,4.13,14.87,1.75,21.96-2.37,14.88-8.66,5.31-34.89,15.53-37.9,15.62-4.6,10.54,15.33,12.33,23.19s12.77,9.48,9.23,21.51c-2.32,7.9-17.15,1.99-23.52,3.33-1.31.28-10.33,8.67-13.2,10.06-3.23,1.57-11.18,5.07-14.3,5.82-5.28,1.27-18.98.49-23.52,2.11-9.86,3.51-11.71,19.29-24,15.87-9.15-2.55-1.46-17.13,1.61-21.57,3.42-4.95,11.74-5.42,7.95-13.15l-33.26-59.77c-9.69-2.26-27.96-1.65-25.02-16.72,1.76-9.02,15.59-1.94,22.17-3.04s27.82-21.37,39.54-25.63c11.11-4.04,29.1-4.02,38.88-8.46,4.82-2.19,4.48-11.13,16.09-7.26Z"/>
  <path class="cls-1" d="M905.55,264.46c32.62,11.81,32.16,49.68,42.96,73.55,1.13,2.49,9.75,6.7,10.91,10.05,5.76,16.62-16.94,10.53-24.97,11.88-5.32.89-18.39,15.9-23.71,2.82-4.69-11.53,15.41-13.88,16.33-30.27,3.94-70.11-100.28-45.77-90.53,5.49,2.06,10.85,16.58,31.79,27.85,32.02,13.54.28,14.96-22.7,17.89-23.65,23.48-7.63,6.29,24.5,7.71,25.65,4.31,3.49,22.61,1.32,22.1,14.49-.04.94-4.58,5.41-5.57,5.57-7.57,1.22-16.22-7.68-29.77-3.99-8.07,2.2-6.62,21.7-21.31,18.12-5.73-1.4-5.11-15.98-7.51-21.39-2.94-6.63-23.06-19.05-28.22-32.05-15.2-38.32-1.77-55.68,20.22-83.53,1.18-1.49,3.79-8.8,4.24-9.03,2.06-1.07,41.67-.75,46.37-.23,3.5.39,11.34,3.18,15,4.5Z"/>
  <path class="cls-1" d="M113.69,426.33c21.67,16.39,47.58,20.08,56,50.49,12.53,45.24-11.47,64.14-47.37,79.51-6.16,2.64-9.36,8.72-16.85,7.72-1.66-.22-11.33-8.3-13.9-9.64-25.72-13.4-46.56-26.84-45.6-60.94,1.14-40.47,36.25-54.06,67.72-67.14ZM131.68,470.35c-80.74-22.27-88.62,62.44-9.25,53.58,35.67-3.98,41.23-44.76,9.25-53.58Z"/>
  <path class="cls-1" d="M101.72,586.3c.28.11,4.01,4.1,4.09,4.39,3.48,13.13-19.78,16.27-22.44,29.96-2.47,12.69,2.13,37.82,18.91,35.3,2.28-.34,21.51-9.1,21.69-10.73,2.01-17.96-26.24-3.21-21.68-23.48,2.11-9.4,12.19-3.38,19.16-3.82,6.11-.39,31.38-18.81,28.35,2.29-.74,5.17-19.72,12.05-9.79,17.29,5.46,2.88,28.68-7.35,29.94-13.07,1.68-7.68-4.25-21.9,10.57-20.51,5.46.51,9.11,28.39,11.65,35.21,2.86,7.67,23.38,27.89,7.83,32.29-9.53,2.7-13.53-12.15-18.04-12.92-3.92-.67-69.85,30.14-71.72,33.65-2.28,4.26-1.39,20-7.77,21.86-18.14,5.28-10.39-11.27-10.37-19.53.02-11.28-14.9-24.7-19.29-35.78-6.47-16.35-4.48-31.91-9.06-45.94-2.16-6.61-18.26-16.43-5.24-22.79,5.23-2.56,13.44,2.14,19.02,2.1,7.4-.06,17.54-8.27,24.21-5.77Z"/>
  <path class="cls-1" d="M547.68,44.35c3.39.62,11.39,5.66,15.83,5.73,5.14.07,8.43-6.33,16.73-4.01,11,3.07-3.03,21.36-4.01,26.66-1.15,6.22,2.6,26.86-10.46,23-8.53-2.52-6.74-15.93-9.88-22.89-2.89-6.4-18.77-19.23-21.39-6.88,1.47,21.89-6.66,55.77-2.54,76.55,1.43,7.23,20.79,1.68,17.99,18.73-1.56,9.51-21.24,1.14-26.38.7-4.76-.41-13.35-.41-18.1.01-7.17.64-19.41,10.58-22.24-2.71s15.69-8.77,17.68-16.81c1.44-5.84-.8-75.66-2.54-79.22-4.93-10.1-19.09,5.8-21.54,12.11-3.01,7.74-1.03,20.84-12.1,20.45-10.44-.37-6.13-15.09-6.98-21-1.34-9.38-19.74-32.13,3.82-28.82.95.13,5.55,3.91,7.96,4.01,4.82.21,20.75-7.29,27.96-7.97,14.87-1.41,35.61-.31,50.21,2.38Z"/>
  <path class="cls-1" d="M939.7,576.35c.43.06,7.32,3.67,7.74,3.72,11.13,1.32,31.86-8.19,31.61,7.39-.08,4.7-7.8,9.71-8.82,15.27-1.37,7.42.58,16.68-.5,24.5-.85,6.16-9.39,33.32-11.88,39.9-2.38,6.28-12.46,15.52-13.77,19.66-2.95,9.25,2.77,24.54-10.58,23.31-2.79-.26-12.66-13.88-16.84-15.73-6.83-3.02-19.68,0-18.62-12.78.95-11.5,16.21-4.87,23.5-5.55,8.44-.78,19.88-8.23,18.46-18.04l-71.73-25.96c-11.86-5.93-15.72,23.54-27.95,11.62-6.86-6.69,6.95-22.37,9.61-31.23,1.14-3.8,3.36-11.42,4.01-15.06.94-5.26-5.28-15.89,6.54-17.41,15.18-1.96,4.66,19.34,13.57,23.45,8.7,1.47,73.16,22,76.81,20.44,4.79-2.04,1.63-13.96-.2-18.04-3.38-7.54-21.96-13.53-22.69-19.38-.97-7.79,5.03-11.02,11.72-10.08Z"/>
  <path class="cls-1" d="M188.58,312.44c2.88,1.43,8.45,9.74,13.34,11.37,7.04,2.35,21.72.85,20.14,10.67-1.27,7.87-10.74,9.56-13.69,15.88-5.33,11.45-6.83,23.61-14.09,36.36-3.13,5.5-14.46,15.63-15.67,21.35-1.44,6.76,5.63,21.12-1.45,23.81-18.45,7.03-13.82-20.57-15.45-27.6-.87-3.77-61.34-30.27-69.28-34.38-4.23-.32-15.88,21.88-23.32,9.49-4.8-8,11.21-25.43,14.34-35.43,2.62-8.38,2.09-30.5,12.05-30.04,12.85.59,5.39,17.25,11.01,23.61,2.32,2.64,58.12,33.18,61.56,33.9,16.94,3.57,23.66-16.07,20.45-29.45-1.98-8.25-13.15-15.8-13.95-18.99-2.98-11.88,3.84-15.6,14-10.54Z"/>
  <path class="cls-1" d="M645.57,64.42c6.28,2.9,13.02,9.67,21.02,11.5,10.98,2.52,27.54-2.19,28.48,10.6.69,9.49-12.66,10.01-19.04,9.51l-25.52,68.03c-4.61,12.22,21.66,13.89,11.52,27.17-6.98,9.14-23.68-8.72-32.73-11.19-11.53-3.14-35.91,2.75-31.21-15.27.09-.35,4.92-4.34,5.26-4.4,9.66-2,14.38,4.08,18.85-5.69,2.86-6.25,19.89-62.22,19.9-67.19.02-9.76-14.79-8.4-12.61-19.51,1.91-9.73,10.47-6.15,16.1-3.55Z"/>
  <path class="cls-2" d="M223.65,768.35c11.12,11.15-18.94,31.16-26.25,31.68-1.98.14-9.26-7.57-9.41-8.74-1.46-10.84,26.34-32.29,35.67-22.94Z"/>
  <path class="cls-2" d="M822.67,766.37c2.3.54,22.21,16.46,22.68,18.9,5.28,27.41-33.95,4.07-36.42-3.63-3.33-10.35,2.86-17.83,13.75-15.26Z"/>
  <path class="cls-2" d="M308.99,898.01c2.66,2.65-5.65,2.65-2.99,0,.11-.11,2.88-.11,2.99,0Z"/>
  <path class="cls-2" d="M407,372c-3.92,2.6-3.67,5.24-10,6,.2-4.73,7.86-4.78,10-6Z"/>
  <path class="cls-2" d="M426,362c-2.39,4.67-10.64,6.27-15,8,6.2-4.18,6.29-5.82,15-8Z"/>
  <path class="cls-2" d="M411,370c-.19.13.22,1.86,0,2-.64.39-3.36-.36-4,0,.19-.12-.22-1.87,0-2,.63-.38,3.14.34,4,0Z"/>
  <path class="cls-2" d="M543.69,200.35c305.91,22.77,386.23,451.35,106.41,583.48-301.54,142.39-580.82-226.35-365.93-478.69,9.58-11.25,21.28-21.86,32.61-31.39.66-.56-.07-3.52.21-3.75.49-.4,3.59.6,4.73-.32,63.71-51.6,138.73-75.54,221.96-69.34ZM503.68,242.37c-10.75-1.32-11.21,10.52-9.4,17.86.94,3.82,15.33,19.82,18.31,19.81,15.24-.08,30.5-41.1,10.02-37.97-9.75,1.49-5.99,13.34-6.61,13.94-.21.21-5.8.21-6.01,0-.63-.62,2.68-12.53-6.31-13.64ZM659.67,288.33c-7.39-7.68-17.32.33-15.75,11.16.78,5.35,12.71,21.1,17.41,22.13,16.58,3.65,34.93-41.39,10.21-35.58-8.16,1.92-3.73,15.12-8.01,13.95-2.2-.6-.91-8.61-3.85-11.66ZM345.7,288.32c-23.71-2.94-2.7,39.63,10.58,37.56,2.07-.32,17.27-16.53,17.68-18.62,1.61-8.28.42-21.22-11.19-19-7.34,1.4-4.43,20.21-10.78,13.74-.58-.59,1.76-12.68-6.3-13.68ZM426,362c.34-.67,2.18-3.86,2-3.99-3.66-2.58-81.32-1.07-89.54-.05-10.32,1.27-28.95,14.5-40.46,16.05-.1,3.2,3.18,3.65,5.48,4.01,15.17,2.4,77.51,1.91,93.52-.02l-1.02,199.44c2.84,3.23,6.99-7.36,9.01-5.43,1.27,1.21-3.68,4.33-.49,5.99h14.5c4.38,0,6.34,15.39,7.1,15.9,5.88,3.99,6.16-6.89,5.12-10.67-3.33-12.08-23.57-11.72-24.22-14.72-.38-1.76,22.23-22.4,25.45-25.54,1.12-2.23,1.29-5,1.59-7.44,3.96-32.8,3.92-137.41.01-170.07-.95-7.98-1.46-5.11-8.04-3.46ZM602,370c4.17,1.61,15.11,8,16,8h98c.68-5.5-12.59-6.89-15.26-8.06-3.98-1.73-23.34-11.94-24.74-11.94h-90c4.2,4.44,10.73,8.14,16,12-7.46-2.89-14.37-6.59-22-9v178.5c0,2.75,31.33,31.76,33.42,37.58l4.57.92.06-196.52c-.29-1.58-13.1-9.33-16.05-11.49ZM393,380h-104l.47,202.05,101.97.81,1.56-202.86ZM724,380h-104v202h104v-202ZM578,420h-40c-11.65,0-32.31,22.86-34.37,35.64-2.55,18.07-67.63,8.79-67.63,12.36v18h52.5c25.76,0,29.34-26.23,40.56-39.22,2.76-3.2,12.87-8.78,16.44-8.78h31.5c.13,0,1-2.37,1-2.5v-15.5ZM766.66,442.33c-3.25-3.45-7.86-2.44-11.36-.03-11.28,7.76,6.42,35.46,17.98,34.53,1.3-.1,12.71-9.98,13.64-11.64,5.49-9.78,8.58-28.39-7.16-25.12-6.93,1.44-4.88,17.54-9.75,13.93-.79-.59-.74-8.9-3.35-11.67ZM247.67,444.37c-26.39-7.98-7.68,39.59,9.57,35.56,4.13-.96,16.12-16.47,16.68-21.49,1.05-9.37-2.47-17.4-13.17-14.37-5.31,1.51-3,17.56-7.69,13.89-2.03-1.59,1.11-11.62-5.39-13.59ZM577,496h-43.5c-39.51,0-39.22,64-62,64h-37.5c-1,0-1,20,0,20h35.5c32.92,0,35.28-35.81,48.56-55.21,2.99-4.37,15.99-10.79,20.44-10.79h37.5c.13,0,1-2.37,1-2.5v-15.5ZM747.51,572.49c-3.89-2.09-17.95-7.44-21.07-3.56-5.32,6.62,5.45,4.51,7.99,5.13,6.85,1.7,14.98,5.62,17.51,12.67.59,1.65-.4,6.8.05,7.26.21.21,5.8.21,6.01,0,3.81-3.73-5.26-18.7-10.5-21.51ZM251,626c5.22,4.36,119.98-3.35,136,0-1.54-5.32,15.96-31.9,10.32-34.04l-120.83-.04c-2.44,2.69-27.17,32.67-25.48,34.08ZM611,626h135c.13-1.31.06-2.43-.31-3.72-.55-1.93-24.09-30.09-26.08-30.36l-118.95.23c-2.71,1.21,8.8,32.9,10.34,33.84ZM424.94,594.05c-1.08-.78-13.67,5.82-10.93,7.94,4.79,3.71,15.29-4.77,10.93-7.94ZM763.7,594.35c-6.61-.95-5.06,4.09-2.5,7.47.73.97,4.7-1.34,3.79,2.17-10.28,2.81-5.92-5.63-9.18-7.79-4.67-3.1-9.67,7.25-7.81,9.81,1.38,1.9,8.94-5.96,9,0-4.39.96-8.12,1.04-7.78,5.27,1.16,14.43,31.9,23.73,29.38,2.71-1.18-9.82-5.36-7.53-8.61-10.47-.46-.42,1.2-8.08-6.29-9.16ZM432.76,596.26c-3.47-1.74-6.39.98-6.46,4.41-.11,6.01,5.11,1.07,4.69,5.33-11.7-2.27-23.91-7.02-25.09,9.5-1.49,20.92,37.64,6.49,26.09-9.48,7.02,2.69,3.63-8.32.77-9.75ZM652.81,686.19c-9.71-5.09-15.4,3.89-14.55,13.04.67,7.12,15.55,24.72,22.2,22.79,8.99-2.61,25.85-30.09,13.53-35.52-15.21-6.71-12.01,8.87-14,11.51-4.25,5.63-5.73-11.06-7.18-11.82ZM358.72,690.33c-11.66-3.93-14.96,7.39-12.62,17.07,1.27,5.26,16.98,22.79,21.88,20.6.18-.08.32-2.96.94-3.35,10.49-6.53,18.18-16.15,15.14-29.16-.17-.74-4.46-5.36-4.82-5.42-17.57-2.82-7.47,17.36-15.58,13.98-1.9-.79.14-12-4.94-13.72ZM509.73,726.3c-18.61-6.52-12.96,31.46,5.7,35.88,13.64,3.23,31.59-32.38,15.81-36.1-13.56-3.19-9.51,11.48-11.24,13.93-4.15,5.88-6.15-12.26-10.27-13.7Z"/>
  <path class="cls-2" d="M131.68,470.35c31.98,8.82,26.42,49.6-9.25,53.58-79.37,8.86-71.5-75.85,9.25-53.58Z"/>
  <path class="cls-1" d="M724,380v202h-104v-202h104ZM712,408v-15.5c0-4-73.83.97-80-.5v60h80v-41.99c-3.48,1.17-2.61,2.81-7.51,3.07-16.19.87-45.27,1.37-61.02-.04-6.43-.58-9.9.28-8.47-7.03h75c.14,0-.77,3.04,2,2ZM711,470c-3.3-2.08-68.19,0-78,0-1.33,0-1.33,18,0,18h79v-15.5c0-.13-.89-2.43-1-2.5ZM679.72,522.33c-19.68-5.81-26.01,20.18-6.22,20.42,13.54.17,12.05-18.7,6.22-20.42ZM678.72,552.27c-2.43-2.05-8.31-1.87-10.73.43-12,11.37,12.58,21.48,13.01,5.32-4.83-1.12-1.8,5.3-6.52,6.06-8.11,1.31-7.57-8.94-4.79-10.1,2.08-.86,16.11,4.26,9.04-1.7Z"/>
  <path class="cls-1" d="M393,380l-1.56,202.86-101.97-.81-.47-202.05h104ZM380,392h-80v60h80v-60ZM380,470h-79v18h79v-18ZM335,540c.1.04-.33,1.79.69,2,21.15,4.24,18.09-24.39,1.27-20.62-8.01,1.79-12.29,14.73-1.96,18.63-3.2-1.34-5.26-13.34,1.71-15.77,15.17-5.28,15.09,22.82-1.71,15.77ZM334,556c-.42.72-2.29-2.4-1.91,4.43.3,5.5,6.97,6.68,11.23,5.56,1.03-.27.59-1.94.68-2,1.78-1.02,3.44,1.75,4.03-4.53.64-6.9-7.13-9.39-12.34-7.5-1.55.56-1.06,2.99-1.69,4.04Z"/>
  <path class="cls-1" d="M334,556c.21-.95,11.36-5.7,11.75,2.67.03.59-1.5,5.2-1.75,5.33-4.5,2.36-11.27-2.21-10-8Z"/>
  <path class="cls-1" d="M426,362c6.58-1.65,7.09-4.53,8.04,3.46,3.91,32.66,3.95,137.28-.01,170.07-.3,2.45-.47,5.21-1.59,7.44-3.21,3.14-25.83,23.78-25.45,25.54.65,3,20.9,2.64,24.22,14.72,1.04,3.78.76,14.66-5.12,10.67-.76-.51-2.72-15.9-7.1-15.9h-14.5c-3.18-1.66,1.76-4.78.49-5.99-2.02-1.93-6.17,8.66-9.01,5.43l1.02-199.44c6.33-.76,6.08-3.4,10-6,.64-.36,3.37.39,4,0,.22-.13-.19-1.87,0-2,4.36-1.73,12.61-3.33,15-8Z"/>
  <path class="cls-1" d="M397,378c-16.01,1.92-78.34,2.41-93.52.02-2.3-.36-5.59-.8-5.48-4.01,11.51-1.54,30.14-14.77,40.46-16.05,8.22-1.01,85.87-2.52,89.54.05.18.13-1.66,3.32-2,3.99-8.71,2.18-8.8,3.82-15,8-.87.35-3.37-.38-4,0-.22.13.19,1.87,0,2-2.14,1.22-9.8,1.27-10,6Z"/>
  <path class="cls-1" d="M602,370c-5.27-3.86-11.8-7.56-16-12h90c1.41,0,20.76,10.21,24.74,11.94,2.67,1.16,15.94,2.55,15.26,8.06h-98c-.89,0-11.83-6.39-16-8,2.95,2.16,15.76,9.9,16.05,11.49l-.06,196.52-4.57-.92c-2.09-5.82-33.42-34.83-33.42-37.58v-178.5c7.63,2.41,14.54,6.11,22,9Z"/>
  <path class="cls-1" d="M577,496v15.5c0,.13-.87,2.5-1,2.5h-37.5c-4.45,0-17.45,6.41-20.44,10.79-13.28,19.41-15.64,55.21-48.56,55.21h-35.5c-1,0-1-20,0-20h37.5c22.78,0,22.49-64,62-64h43.5Z"/>
  <path class="cls-1" d="M578,420v15.5c0,.13-.87,2.5-1,2.5h-31.5c-3.58,0-13.68,5.58-16.44,8.78-11.22,12.99-14.79,39.22-40.56,39.22h-52.5v-18c0-3.57,65.08,5.71,67.63-12.36,2.05-12.78,22.72-35.64,34.37-35.64h40Z"/>
  <path class="cls-1" d="M251,626c-1.68-1.41,23.05-31.38,25.48-34.08l120.83.04c5.65,2.14-11.85,28.72-10.32,34.04-16.02-3.35-130.78,4.36-136,0ZM387,600c-4.04-3.66-96.12,2.81-109,0,.24,4.02-17.18,18.23-9.39,19.73l110.57-1.84c2.23-.88,8.83-16.96,7.81-17.89Z"/>
  <path class="cls-1" d="M611,626c-1.53-.94-13.05-32.62-10.34-33.84l118.95-.23c1.99.27,25.53,28.42,26.08,30.36.37,1.29.44,2.4.31,3.72h-135ZM719,600h-108l6.69,18.03,111.9.89c7.05-.81-10.6-14.76-10.59-18.92Z"/>
  <path class="cls-1" d="M766.66,442.33c2.61,2.77,2.56,11.09,3.35,11.67,4.88,3.61,2.82-12.49,9.75-13.93,15.74-3.27,12.65,15.34,7.16,25.12-.93,1.66-12.34,11.53-13.64,11.64-11.56.93-29.26-26.77-17.98-34.53,3.51-2.41,8.12-3.43,11.36.03Z"/>
  <path class="cls-1" d="M358.72,690.33c5.08,1.71,3.04,12.92,4.94,13.72,8.11,3.38-1.99-16.79,15.58-13.98.36.06,4.65,4.68,4.82,5.42,3.04,13.01-4.65,22.63-15.14,29.16-.62.39-.76,3.27-.94,3.35-4.9,2.19-20.61-15.34-21.88-20.6-2.34-9.68.96-21,12.62-17.07Z"/>
  <path class="cls-1" d="M247.67,444.37c6.5,1.97,3.36,12,5.39,13.59,4.69,3.67,2.39-12.38,7.69-13.89,10.7-3.03,14.22,5,13.17,14.37-.56,5.02-12.56,20.53-16.68,21.49-17.26,4.03-35.96-43.54-9.57-35.56Z"/>
  <path class="cls-1" d="M652.81,686.19c1.45.76,2.93,17.44,7.18,11.82,1.99-2.63-1.21-18.21,14-11.51,12.32,5.43-4.54,32.91-13.53,35.52-6.65,1.93-21.54-15.67-22.2-22.79-.85-9.15,4.84-18.13,14.55-13.04Z"/>
  <path class="cls-1" d="M345.7,288.32c8.06,1,5.72,13.09,6.3,13.68,6.35,6.47,3.44-12.34,10.78-13.74,11.6-2.21,12.8,10.72,11.19,19-.41,2.09-15.6,18.3-17.68,18.62-13.29,2.06-34.29-40.5-10.58-37.56Z"/>
  <path class="cls-1" d="M659.67,288.33c2.94,3.06,1.66,11.07,3.85,11.66,4.29,1.17-.15-12.04,8.01-13.95,24.72-5.81,6.38,39.23-10.21,35.58-4.7-1.03-16.63-16.78-17.41-22.13-1.57-10.83,8.36-18.84,15.75-11.16Z"/>
  <path class="cls-1" d="M509.73,726.3c4.12,1.44,6.11,19.58,10.27,13.7,1.73-2.45-2.32-17.12,11.24-13.93,15.78,3.72-2.17,39.33-15.81,36.1-18.66-4.42-24.31-42.4-5.7-35.88Z"/>
  <path class="cls-1" d="M503.68,242.37c8.99,1.1,5.68,13.01,6.31,13.64.21.21,5.8.21,6.01,0,.62-.6-3.14-12.45,6.61-13.94,20.48-3.13,5.22,37.89-10.02,37.97-2.98.02-17.36-15.99-18.31-19.81-1.81-7.34-1.35-19.18,9.4-17.86Z"/>
  <path class="cls-1" d="M763.7,594.35c7.5,1.07,5.83,8.74,6.29,9.16,3.25,2.94,7.44.65,8.61,10.47,2.52,21.02-28.22,11.73-29.38-2.71-.34-4.23,3.39-4.32,7.78-5.27-.07-5.95-7.62,1.91-9,0-1.86-2.56,3.14-12.9,7.81-9.81,3.26,2.16-1.1,10.6,9.18,7.79.91-3.52-3.06-1.21-3.79-2.17-2.57-3.38-4.12-8.42,2.5-7.47Z"/>
  <path class="cls-1" d="M432.76,596.26c2.87,1.43,6.26,12.44-.77,9.75,11.55,15.97-27.58,30.41-26.09,9.48,1.18-16.51,13.38-11.77,25.09-9.5.42-4.26-4.8.68-4.69-5.33.07-3.43,2.99-6.15,6.46-4.41Z"/>
  <path class="cls-1" d="M747.51,572.49c5.24,2.81,14.31,17.78,10.5,21.51-.21.21-5.8.21-6.01,0-.46-.46.54-5.61-.05-7.26-2.53-7.06-10.66-10.97-17.51-12.67-2.54-.63-13.31,1.49-7.99-5.13,3.12-3.88,17.18,1.47,21.07,3.56Z"/>
  <path class="cls-1" d="M424.94,594.05c4.36,3.17-6.14,11.65-10.93,7.94-2.74-2.12,9.85-8.73,10.93-7.94Z"/>
  <path class="cls-2" d="M712,408c-2.77,1.04-1.86-2-2-2h-75c-1.43,7.32,2.04,6.46,8.47,7.03,15.75,1.42,44.83.92,61.02.04,4.9-.26,4.03-1.9,7.5-3.07v41.99s-79.99,0-79.99,0v-60c6.17,1.47,80-3.5,80,.5v15.5ZM710,428h-76c1.24,2.67-1.79,22,1.5,22h74.5v-22Z"/>
  <path class="cls-2" d="M711,470c.11.07,1,2.37,1,2.5v15.5h-79c-1.33,0-1.33-18,0-18,9.81,0,74.7-2.08,78,0ZM709,486c1.03-1.88,2.06-14-.5-14h-72.5v14h73Z"/>
  <path class="cls-2" d="M679.72,522.33c5.83,1.72,7.32,20.59-6.22,20.42-19.79-.25-13.46-26.24,6.22-20.42ZM677.72,524.33c-17.13-5.5-17.85,20.33-.48,15.6,5.31-1.44,5.72-13.92.48-15.6Z"/>
  <path class="cls-2" d="M678.72,552.27c7.08,5.97-6.96.84-9.04,1.7-2.78,1.15-3.32,11.4,4.79,10.1,4.72-.76,1.69-7.17,6.52-6.06-.43,16.17-25.01,6.05-13.01-5.32,2.42-2.29,8.3-2.47,10.73-.43Z"/>
  <path class="cls-2" d="M380,392v60h-80v-60h80ZM378,406c-2.63-2.61-65.21,2-74,0,.19,1.45-.46,4.29.15,5.35,2.88,5.06,59.28-.67,68.38,2.74,4.59,1.77,7.06-6.53,5.48-8.1ZM378,428h-74c-1.1,0-1.08,20.01-1,22h75v-22Z"/>
  <path class="cls-2" d="M380,470v18h-79v-18h79ZM378,472c-2.62-2.61-65.22,2-74,0v14h72.5c1.95,0,2-13.5,1.5-14Z"/>
  <path class="cls-2" d="M335,540c-10.33-3.9-6.04-16.83,1.96-18.63,16.82-3.77,19.88,24.86-1.27,20.62-1.02-.21-.59-1.96-.69-2,16.81,7.05,16.88-21.05,1.71-15.77-6.97,2.43-4.91,14.43-1.71,15.77Z"/>
  <path class="cls-2" d="M334,556c.62-1.05.14-3.48,1.69-4.04,5.22-1.89,12.99.6,12.34,7.5-.59,6.29-2.25,3.51-4.03,4.53.25-.13,1.78-4.74,1.75-5.33-.39-8.37-11.54-3.62-11.75-2.67Z"/>
  <path class="cls-2" d="M334,556c-1.27,5.79,5.5,10.36,10,8-.09.05.34,1.73-.68,2-4.26,1.12-10.92-.06-11.23-5.56-.38-6.83,1.49-3.72,1.91-4.43Z"/>
  <path class="cls-2" d="M387,600c1.02.92-5.59,17-7.81,17.89l-110.57,1.84c-7.79-1.5,9.62-15.71,9.39-19.73,12.88,2.81,104.96-3.66,109,0ZM381.5,602h-101.5c-.83,0-9.67,13.52-8.99,13.99,4.19,2.94,90.02-2.67,102.36.61,5.73,1.77,11.97-12.9,8.13-14.6Z"/>
  <path class="cls-2" d="M719,600c0,4.16,17.64,18.12,10.59,18.92l-111.9-.89-6.69-18.03h108ZM718,602h-104c-.25,1.73,4.26,14,5,14h107c-.43-1.82-7.25-13.71-8-14Z"/>
  <path class="cls-1" d="M710,428v22h-74.5c-3.29,0-.26-19.33-1.5-22h76Z"/>
  <path class="cls-1" d="M709,486h-73v-14h72.5c2.56,0,1.53,12.12.5,14Z"/>
  <path class="cls-1" d="M677.72,524.33c5.24,1.68,4.83,14.16-.48,15.6-17.38,4.73-16.66-21.1.48-15.6Z"/>
  <path class="cls-1" d="M378,428v22h-75c-.08-1.99-.1-22,1-22h74Z"/>
  <path class="cls-1" d="M378,406c1.58,1.57-.88,9.87-5.48,8.1-9.1-3.41-65.5,2.32-68.38-2.74-.61-1.07.05-3.9-.15-5.35,8.79,2,71.37-2.61,74,0Z"/>
  <path class="cls-1" d="M378,472c.5.5.45,14-1.5,14h-72.5v-14c8.78,2,71.38-2.61,74,0Z"/>
  <path class="cls-1" d="M381.5,602c3.83,1.7-2.4,16.37-8.13,14.6-12.34-3.27-98.17,2.34-102.36-.61-.68-.48,8.16-13.99,8.99-13.99h101.5Z"/>
  <path class="cls-1" d="M718,602c.75.29,7.57,12.18,8,14h-107c-.74,0-5.25-12.27-5-14h104Z"/>
</svg>